HIERARCHY
ROOT Hips
{
	OFFSET 0.00000 0.00000 0.00000
	CHANNELS 6 Xposition Yposition Zposition Zrotation Yrotation Xrotation 
	JOINT LHipJoint
	{
		OFFSET 0 0 0
		CHANNELS 3 Zrotation Yrotation Xrotation
		JOINT LeftUpLeg
		{
			OFFSET 1.37590 -1.78394 0.89329
			CHANNELS 3 Zrotation Yrotation Xrotation
			JOINT LeftLeg
			{
				OFFSET 2.47928 -6.81178 0.00000
				CHANNELS 3 Zrotation Yrotation Xrotation
				JOINT LeftFoot
				{
					OFFSET 2.63345 -7.23535 0.00000
					CHANNELS 3 Zrotation Yrotation Xrotation
					JOINT LeftToeBase
					{
						OFFSET 0.23938 -0.65768 2.27012
						CHANNELS 3 Zrotation Yrotation Xrotation
						End Site
						{
							OFFSET 0.00000 -0.00000 1.18363
						}
					}
				}
			}
		}
	}
	JOINT RHipJoint
	{
		OFFSET 0 0 0
		CHANNELS 3 Zrotation Yrotation Xrotation
		JOINT RightUpLeg
		{
			OFFSET -1.33617 -1.78394 0.89329
			CHANNELS 3 Zrotation Yrotation Xrotation
			JOINT RightLeg
			{
				OFFSET -2.56922 -7.05888 0.00000
				CHANNELS 3 Zrotation Yrotation Xrotation
				JOINT RightFoot
				{
					OFFSET -2.56568 -7.04915 0.00000
					CHANNELS 3 Zrotation Yrotation Xrotation
					JOINT RightToeBase
					{
						OFFSET -0.27533 -0.75646 2.18105
						CHANNELS 3 Zrotation Yrotation Xrotation
						End Site
						{
							OFFSET -0.00000 -0.00000 1.15233
						}
					}
				}
			}
		}
	}
	JOINT LowerBack
	{
		OFFSET 0 0 0
		CHANNELS 3 Zrotation Yrotation Xrotation
		JOINT Spine
		{
			OFFSET 0.06190 2.15152 -0.00935
			CHANNELS 3 Zrotation Yrotation Xrotation
			JOINT Spine1
			{
				OFFSET 0.06334 2.15332 0.00872
				CHANNELS 3 Zrotation Yrotation Xrotation
				JOINT Neck
				{
					OFFSET 0 0 0
					CHANNELS 3 Zrotation Yrotation Xrotation
					JOINT Neck1
					{
						OFFSET -0.04202 1.66908 0.23524
						CHANNELS 3 Zrotation Yrotation Xrotation
						JOINT Head
						{
							OFFSET 0.07510 1.69357 -0.24440
							CHANNELS 3 Zrotation Yrotation Xrotation
							End Site
							{
								OFFSET 0.02556 1.71719 -0.11000
							}
						}
					}
				}
				JOINT LeftShoulder
				{
					OFFSET 0 0 0
					CHANNELS 3 Zrotation Yrotation Xrotation
					JOINT LeftArm
					{
						OFFSET 3.67168 1.26306 -0.41342
						CHANNELS 3 Zrotation Yrotation Xrotation
						JOINT LeftForeArm
						{
							OFFSET 4.68510 -0.00000 -0.00000
							CHANNELS 3 Zrotation Yrotation Xrotation
							JOINT LeftHand
							{
								OFFSET 3.39626 -0.00000 -0.00000
								CHANNELS 3 Zrotation Yrotation Xrotation
								JOINT LeftFingerBase
								{
									OFFSET 0 0 0
									CHANNELS 3 Zrotation Yrotation Xrotation
									JOINT LeftHandIndex1
									{
										OFFSET 0.48608 -0.00000 -0.00000
										CHANNELS 3 Zrotation Yrotation Xrotation
										End Site
										{
											OFFSET 0.39189 -0.00000 -0.00000
										}
									}
								}
								JOINT LThumb
								{
									OFFSET 0 0 0
									CHANNELS 3 Zrotation Yrotation Xrotation
									End Site
									{
										OFFSET 0.39787 -0.00000 0.39787
									}
								}
							}
						}
					}
				}
				JOINT RightShoulder
				{
					OFFSET 0 0 0
					CHANNELS 3 Zrotation Yrotation Xrotation
					JOINT RightArm
					{
						OFFSET -3.04136 1.42992 -0.76390
						CHANNELS 3 Zrotation Yrotation Xrotation
						JOINT RightForeArm
						{
							OFFSET -5.55576 -0.00000 -0.00000
							CHANNELS 3 Zrotation Yrotation Xrotation
							JOINT RightHand
							{
								OFFSET -3.32774 -0.00000 -0.00000
								CHANNELS 3 Zrotation Yrotation Xrotation
								JOINT RightFingerBase
								{
									OFFSET 0 0 0
									CHANNELS 3 Zrotation Yrotation Xrotation
									JOINT RightHandIndex1
									{
										OFFSET -0.50763 -0.00000 -0.00000
										CHANNELS 3 Zrotation Yrotation Xrotation
										End Site
										{
											OFFSET -0.40926 -0.00000 -0.00000
										}
									}
								}
								JOINT RThumb
								{
									OFFSET 0 0 0
									CHANNELS 3 Zrotation Yrotation Xrotation
									End Site
									{
										OFFSET -0.41551 -0.00000 0.41551
									}
								}
							}
						}
					}
				}
			}
		}
	}
}
MOTION
Frames: 8
Frame Time: 0.0444444
0.00 0.00 0.00 0 0 0 0 0 0 -21 0 0 0 0 0 0 0 0 0 0 0 0 0 0 21 0 0 0 0 0 0 0 0 0 0 0 0 0 0 0 0 0 0 0 0 0 0 -16 0 0 21 0 0 11 0 0 0 -8 0 0 0 0 0 0 0 0 0 0 0 0 0 0 0 0 0 0 0 0 8 0 0 0 0 0 0 0 0 0 0 0 0 0 0 0 0 0
0.00 0.00 0.00 -105.0220 -84.4168 114.8730 0.0000 0.0000 0.0000 -10.7512 -6.3435 -20.2487 2.8892 10.5134 30.6559 0.5955 -0.8159 -14.3208 0.0483 -1.4183 -3.9004 0.0000 0.0000 0.0000 29.4403 6.3541 -11.1783 -1.0589 -6.5428 18.3676 -0.3634 -6.1555 -15.2985 -0.6467 -5.1445 14.3212 6.6927 0.0098 -3.1304 3.3883 -0.2559 -2.2339 -0.2653 -0.2283 -0.5584 -8.7489 -4.5518 -17.8760 8.0033 -5.0613 7.6624 3.4476 -2.1611 5.6383 -0.0000 0.0000 0.0000 -98.0868 -7.1799 22.8096 13.4735 -21.9771 -2.6278 -0.0000 0.0000 -11.2371 4.9530 38.5885 3.0940 -7.1250 0.0000 -0.0000 -38.1041 64.7221 -19.4892 -0.0000 0.0000 0.0000 92.3634 14.1982 45.5186 -26.0610 37.2689 -8.9246 0.0000 -0.0000 -48.3206 -19.5619 -49.1167 15.0374 7.1250 -0.0000 -0.0000 47.1947 -77.0727 -36.8828
0.00 0.00 0.00 -113.6150 -82.1190 123.7460 0.0000 0.0000 0.0000 -5.8202 -7.6523 -34.3402 3.4995 11.4628 33.8570 0.3177 1.8213 -11.4717 0.3203 -3.6379 -10.0602 0.0000 0.0000 0.0000 32.3734 4.4688 -5.1109 -0.6791 -5.2692 14.6779 -0.7367 -1.3769 -16.7681 -0.4672 -4.3841 12.1597 8.2903 0.4320 -2.2327 3.0955 0.4354 -3.6006 -1.4321 -0.0128 -2.4411 -6.5574 -2.4949 -15.6325 8.0952 -2.8230 4.7140 3.3470 -1.0784 4.1461 -0.0000 0.0000 0.0000 -101.2355 -14.0193 39.8866 16.9150 -26.7456 -4.0490 -0.0000 0.0000 -22.8124 -1.8554 36.9849 -1.1165 -7.1250 0.0000 -0.0000 -42.6345 61.6990 -19.2079 -0.0000 0.0000 0.0000 99.3134 36.1638 56.9601 -74.1175 59.0251 -46.2903 0.0000 -0.0000 -47.0599 -15.8302 -55.1813 13.1038 7.1250 -0.0000 -0.0000 75.0433 -77.6551 -62.5186
0.00 0.00 0.00 -143.4860 -79.5182 153.0350 0.0000 0.0000 0.0000 -7.1895 -11.2250 -29.2318 0.9699 6.2699 17.5697 -0.2067 8.1530 -4.4892 0.0011 -0.2186 -0.6006 0.0000 0.0000 0.0000 25.8854 1.7299 -3.3300 -3.2401 -11.0740 32.5298 -0.1700 3.2248 -7.3423 -0.0027 0.3347 -0.9197 5.3993 0.1948 -3.4339 3.0596 0.0576 -4.2473 0.1339 -0.1447 -2.4509 -6.5093 1.3631 -10.0597 11.3129 2.4878 -9.5836 4.5563 1.1586 -1.3949 0.0000 -0.0000 0.0000 -104.2423 -53.7589 54.5050 30.8470 -41.6084 -11.9681 -0.0000 0.0000 -42.0598 0.1983 50.9166 0.1539 -7.1250 0.0000 -0.0000 -66.8582 70.6888 -47.0203 0.0000 -0.0000 0.0000 91.9136 16.7829 56.3076 -68.7725 58.2270 -41.7259 0.0000 -0.0000 -51.8215 -29.5193 -60.3722 26.2058 7.1250 -0.0000 -0.0000 107.3326 81.1153 116.1029
0.00 0.00 0.00 -154.9610 -80.7539 163.0410 0.0000 0.0000 0.0000 -12.8666 -11.4441 -23.6364 1.1811 6.8973 19.4115 -0.0921 6.0515 -5.1739 0.0430 1.3391 3.6823 0.0000 0.0000 0.0000 21.3432 4.6759 -10.0741 -6.8126 -15.1720 48.1618 0.0007 -1.4181 0.9023 -0.0026 -0.3296 0.9056 2.7259 0.0913 -2.7191 2.8111 0.0239 -4.4803 1.3708 -0.0865 -3.0851 -7.6582 1.1039 -9.0479 11.8891 2.2773 -10.1599 4.9200 1.0512 -1.7159 -0.0000 -0.0000 0.0000 -107.3496 -65.9596 56.0858 35.3581 -45.0661 -15.0663 -0.0000 0.0000 -44.0009 -0.1385 50.3195 -0.1066 -7.1250 0.0000 -0.0000 -65.5380 70.3315 -45.4399 -0.0000 -0.0000 0.0000 89.4370 9.4532 58.4809 -62.7951 57.0099 -36.6764 0.0000 -0.0000 -53.5227 -28.5755 -60.7633 25.4207 7.1250 -0.0000 -0.0000 106.9382 80.7198 116.1325
0.00 0.00 0.00 -47.3600 -89.3440 53.4256 0.0000 0.0000 0.0000 -22.2906 -7.4258 -3.9445 0.7709 5.6063 15.6462 0.5272 -2.5101 -13.0836 0.0041 0.4140 1.1376 0.0000 0.0000 0.0000 14.6527 8.5744 -33.3078 -5.3984 -13.8189 42.5167 0.2596 -9.3145 -6.0243 -0.1328 -2.3491 6.4714 0.0263 0.8164 -1.5149 1.6916 1.0650 -3.5409 1.7140 0.5305 -2.8178 -10.3045 -3.3312 -6.1329 12.6095 -3.4288 -13.9327 5.6141 -1.8202 -2.6546 -0.0000 -0.0000 0.0000 -101.6427 -47.5120 43.3127 77.3439 -59.3860 -49.0621 -0.0000 0.0000 -49.8940 16.4691 54.1922 13.4821 -7.1250 0.0000 -0.0000 -70.4275 77.7527 -58.2370 -0.0000 -0.0000 0.0000 93.2912 7.0469 58.7567 -40.8431 48.5616 -19.0689 0.0000 -0.0000 -57.4845 -37.0182 -65.1388 34.3789 7.1250 -0.0000 -0.0000 137.0196 78.0761 145.8219
0.00 0.00 0.00 -10.4647 -83.7970 17.5700 0.0000 0.0000 0.0000 -20.5890 -7.4494 -0.5491 0.9507 6.2095 17.3934 0.6872 -5.8249 -14.7736 0.0472 -1.4028 -3.8579 0.0000 0.0000 0.0000 14.5549 7.7085 -34.4657 -2.2320 -9.3334 26.8439 0.4099 -11.2846 -3.3843 -0.1918 -2.8204 7.7792 0.6657 0.6205 -1.5743 1.8650 0.8084 -3.5316 1.5371 0.3878 -2.7604 -10.3653 -5.0205 -6.0896 12.4845 -5.6677 -15.5127 5.5952 -2.9474 -2.8793 0.0000 -0.0000 0.0000 -98.7855 -31.0244 43.2254 86.0754 -59.9417 -56.6019 -0.0000 0.0000 -48.9875 22.4809 56.5163 19.0419 -7.1250 0.0000 -0.0000 -83.8234 80.1727 -73.8172 0.0000 -0.0000 0.0000 95.9147 18.7301 57.0403 -46.4164 51.4438 -23.3412 0.0000 -0.0000 -59.4657 -44.7742 -66.9701 42.3985 7.1250 -0.0000 -0.0000 149.7046 75.6191 157.7478
0.00 0.00 0.00 -38.6151 -78.7144 44.4626 0.0000 0.0000 0.0000 -9.3536 -10.4765 -11.8308 6.7041 15.0776 47.7463 -0.1548 -7.8288 -0.9671 0.6103 -5.0003 -13.9094 0.0000 0.0000 0.0000 26.1914 9.2685 -22.7436 -1.6073 -7.9951 22.6993 0.3105 -10.3295 -7.2152 -1.3148 -7.2629 20.4966 5.7748 0.2914 -1.2876 3.2903 0.4082 -4.1957 0.1629 0.0189 -3.5975 -7.6923 -5.0191 -8.3670 10.7004 -5.8640 -12.0571 4.4319 -2.9939 -1.6354 0.0000 0.0000 0.0000 -97.8779 -9.0613 49.8076 45.7075 -51.1104 -22.7881 -0.0000 0.0000 -45.0588 23.3421 55.9650 19.6778 -7.1250 0.0000 -0.0000 -81.1327 80.5423 -71.5421 0.0000 0.0000 0.0000 100.4424 46.7894 49.3563 -78.1611 59.4637 -49.7657 0.0000 -0.0000 -52.3457 -24.0614 -58.0107 20.7421 7.1250 -0.0000 -0.0000 93.8647 -80.4066 -84.2115
